<svg width="640" height="640" viewBox="0 0 640 640" fill="none" xmlns="http://www.w3.org/2000/svg" role="img" aria-labelledby="title desc">
  <title id="title">DTPAFC logo</title>
  <desc id="desc">A modern DTPAFC lettermark logo with a purple and green circular badge.</desc>
  <rect width="640" height="640" rx="156" fill="#0F172A"/>
  <circle cx="320" cy="320" r="238" fill="#111827" stroke="#7C3AED" stroke-width="18"/>
  <path d="M146 349C172 235 254 169 363 177C435 182 492 221 520 284" stroke="#22C55E" stroke-width="18" stroke-linecap="round"/>
  <path d="M494 305C475 420 392 489 281 482C207 478 149 438 120 373" stroke="#7C3AED" stroke-width="18" stroke-linecap="round"/>
  <path d="M162 320C162 232.739 232.739 162 320 162C407.261 162 478 232.739 478 320C478 407.261 407.261 478 320 478C232.739 478 162 407.261 162 320Z" fill="#F8FAFC"/>
  <path d="M222 243H288C339 243 374 276 374 320C374 364 339 397 288 397H222V243ZM286 356C311 356 328 342 328 320C328 298 311 284 286 284H268V356H286Z" fill="#5B21B6"/>
  <path d="M384 243H498V284H429V306H490V346H429V397H384V243Z" fill="#16A34A"/>
  <path d="M174 426H466" stroke="#111827" stroke-width="18" stroke-linecap="round"/>
  <text x="320" y="451" text-anchor="middle" fill="#111827" font-family="Arial, Helvetica, sans-serif" font-size="42" font-weight="900" letter-spacing="6">DTPAFC</text>
  <circle cx="495" cy="177" r="24" fill="#22C55E"/>
  <circle cx="145" cy="463" r="18" fill="#7C3AED"/>
</svg>
